<mxfile host="app.diagrams.net" agent="Mozilla/5.0 (Macintosh; Intel Mac OS X 10_15_7) AppleWebKit/605.1.15 (KHTML, like Gecko) Version/16.6 Safari/605.1.15" version="24.8.6">
  <diagram name="Page-1" id="wXirAemDdz8j4fgzIzqy">
    <mxGraphModel dx="1026" dy="692" grid="1" gridSize="10" guides="1" tooltips="1" connect="1" arrows="1" fold="1" page="1" pageScale="1" pageWidth="850" pageHeight="1100" math="0" shadow="0">
      <root>
        <mxCell id="0" />
        <mxCell id="1" parent="0" />
        <mxCell id="GaX3-NC990-z0WUy5j7t-18" style="edgeStyle=orthogonalEdgeStyle;rounded=0;orthogonalLoop=1;jettySize=auto;html=1;entryX=0;entryY=0.5;entryDx=0;entryDy=0;" edge="1" parent="1" source="2" target="GaX3-NC990-z0WUy5j7t-16">
          <mxGeometry relative="1" as="geometry" />
        </mxCell>
        <mxCell id="2" value="OPEN" style="rounded=1;arcSize=40;strokeWidth=2" parent="1" vertex="1">
          <mxGeometry x="190" y="260" width="90" height="35" as="geometry" />
        </mxCell>
        <mxCell id="3" value="CLOSED" style="rounded=1;arcSize=40;strokeWidth=2" parent="1" vertex="1">
          <mxGeometry x="670" y="260" width="108" height="35" as="geometry" />
        </mxCell>
        <mxCell id="GaX3-NC990-z0WUy5j7t-10" style="edgeStyle=orthogonalEdgeStyle;rounded=0;orthogonalLoop=1;jettySize=auto;html=1;entryX=0;entryY=0.5;entryDx=0;entryDy=0;" edge="1" parent="1" source="GaX3-NC990-z0WUy5j7t-8" target="2">
          <mxGeometry relative="1" as="geometry" />
        </mxCell>
        <mxCell id="GaX3-NC990-z0WUy5j7t-8" value="" style="ellipse;whiteSpace=wrap;html=1;aspect=fixed;fillStyle=solid;fillColor=#000000;" vertex="1" parent="1">
          <mxGeometry y="251.25" width="52.5" height="52.5" as="geometry" />
        </mxCell>
        <mxCell id="GaX3-NC990-z0WUy5j7t-11" value="An internship position is created&lt;div&gt;&lt;br&gt;&lt;/div&gt;" style="text;html=1;align=center;verticalAlign=middle;resizable=0;points=[];autosize=1;strokeColor=none;fillColor=none;" vertex="1" parent="1">
          <mxGeometry x="30" y="220" width="190" height="40" as="geometry" />
        </mxCell>
        <mxCell id="GaX3-NC990-z0WUy5j7t-12" value="Candidates have applied to it" style="text;html=1;align=center;verticalAlign=middle;resizable=0;points=[];autosize=1;strokeColor=none;fillColor=none;" vertex="1" parent="1">
          <mxGeometry x="280" y="230" width="180" height="30" as="geometry" />
        </mxCell>
        <mxCell id="GaX3-NC990-z0WUy5j7t-19" style="edgeStyle=orthogonalEdgeStyle;rounded=0;orthogonalLoop=1;jettySize=auto;html=1;exitX=1;exitY=0.5;exitDx=0;exitDy=0;" edge="1" parent="1" source="GaX3-NC990-z0WUy5j7t-16" target="3">
          <mxGeometry relative="1" as="geometry" />
        </mxCell>
        <mxCell id="GaX3-NC990-z0WUy5j7t-16" value="SELECTION IN PROGRESS" style="rounded=1;arcSize=40;strokeWidth=2" vertex="1" parent="1">
          <mxGeometry x="440" y="260" width="190" height="35" as="geometry" />
        </mxCell>
      </root>
    </mxGraphModel>
  </diagram>
</mxfile>
